Screens 

 
http://i.imgur.com/daPmK.jpg
 
http://i.imgur.com/KXJcQ.jpg



EXVID

Filled the Archives

With:

E240

SP               (C) 2009

Snow.#FF0000.and.the.Huntsman.2012.Theatrical.Cut.BDRip.XviD-EXViD

EXViD aims to iNTERNAL those releases which have been lost in the archives
EXViD aims to PRE non-internal releases which have poor sources and are likely skipped by others
 
http://www.imdb.com/title/tt1735898
Subtitles: English HI
Date: 2012.09

Director: Rupert Sanders

Genre: Action  Adventure  Drama  Fantasy

Plot
In a twist to the fairy tale, the Huntsman ordered to take Snow #FF0000 into the woods to be
killed winds up becoming her protector and mentor in a quest to vanquish the Evil Queen

Cast
Kristen Stewart ...Snow #FF0000
Chris Hemsworth ...The Huntsman
Charlize Theron ...Ravenna
Sam Claflin ...William
Sam Spruell ...Finn
Ian McShane ...Beith
Bob Hoskins ...Muir
Ray Winstone ...Gort
Nick Frost ...Nion
Eddie Marsan ...Duir
Toby Jones ...Coll
Johnny Harris ...Quert
Brian Gleeson ...Gus
Vincent Regan ...Duke Hammond
Noah Huntley ...King Magnus

Stats
Format                           : AVI
Format/Info                      : Audio Video Interleave
File size                        : 1.37 GiB
Duration                         : 2h 7mn
Overall bit rate                 : 1 539 Kbps
Writing application              : Nandub v1.0rc2
Writing library                  : Nandub build 1852/release

Video
ID                               : 0
Format                           : MPEG-4 Visual
Format profile                   : Advanced SimpleL5
Format settings, BVOP            : 2
Format settings, QPel            : No
Format settings, GMC             : No warppoints
Format settings, Matrix          : Default (H.263
Codec ID                         : XVID
Codec ID/Hint                    : XviD
Duration                         : 2h 7mn
Bit rate                         : 1 404 Kbps
Width                            : 640 pixels
Height                           : 272 pixels
Display aspect ratio             : 2.35:1
Frame rate                       : 23.976 fps
Color space                      : YUV
Chroma subsampling               : 4:2:0
Bit depth                        : 8 bits
Scan type                        : Progressive
Compression mode                 : Lossy
Bits/(PixelFrame)               : 0.336
Stream size                      : 1.25 GiB (91
Writing library                  : XviD 64

Audio
ID                               : 1
Format                           : MPEG Audio
Format version                   : Version 1
Format profile                   : Layer 3
Mode                             : Joint stereo
Mode extension                   : MS Stereo
Codec ID                         : 55
Codec ID/Hint                    : MP3
Duration                         : 2h 7mn
Bit rate mode                    : Variable
Bit rate                         : 128 Kbps
Channel(s)                       : 2 channels
Sampling rate                    : 48.0 KHz
Compression mode                 : Lossy
Stream size                      : 111 MiB (8
Alignment                        : Aligned on interleaves
Interleave, duration             : 24 ms (0.58 video frame
Interleave, preload duration     : 144 ms
Writing library                  : LAME3.98r
Encoding settings                : -m j -V 4 -q 3 -lowpass 17 --abr 128

Release notes
AMIABLE did the EXTENDED, this is the THEATRiCAL cut

enjoy

Looking for
75TB Archives
DUTCH/FLEMiSH Archives

Greets: CRBS EPiSODE FiCO FLS iLS KLASSiGER LiPSYNC MADE NODLABS RUNNER SPRiNTER

ASCII DONE BY XXNFO 2oo9
